<?xml version="1.0" encoding="UTF-8" standalone="no"?>
<!DOCTYPE svg PUBLIC "-//W3C//DTD SVG 1.1//EN" "http://www.w3.org/Graphics/SVG/1.1/DTD/svg11.dtd">
<svg version="1.1" xmlns="http://www.w3.org/2000/svg" xmlns:xlink="http://www.w3.org/1999/xlink" preserveAspectRatio="xMidYMid meet" viewBox="0 0 500 490" width="500" height="490"><defs><path d="M254.97 68.21C138.88 68.21 44.78 162.31 44.78 278.4C44.78 394.48 138.88 488.59 254.97 488.59C371.05 488.59 465.16 394.48 465.16 278.4C465.16 162.31 371.05 68.21 254.97 68.21Z" id="a1k1o7HA22"></path><path d="M254.97 85.61C148.49 85.61 62.18 171.92 62.18 278.4C62.18 384.87 148.49 471.19 254.97 471.19C361.44 471.19 447.76 384.87 447.76 278.4C447.76 171.92 361.44 85.61 254.97 85.61Z" id="cSYEq9k4m"></path><path d="M254.27 253.34C240.05 253.34 228.52 264.87 228.52 279.1C228.52 293.32 240.05 304.85 254.27 304.85C268.5 304.85 280.03 293.32 280.03 279.1C280.03 264.87 268.5 253.34 254.27 253.34Z" id="e21DSakKhY"></path><path d="M259.84 95.35C259.84 95.35 259.84 95.35 259.84 95.35C259.84 107.88 259.84 114.84 259.84 116.23C259.84 116.23 259.84 116.23 259.84 116.23C253.16 116.23 249.45 116.23 248.71 116.23C248.71 116.23 248.71 116.23 248.71 116.23C248.71 103.7 248.71 96.74 248.71 95.35C248.71 95.35 248.71 95.35 248.71 95.35C255.39 95.35 259.1 95.35 259.84 95.35Z" id="b27PJYxHmR"></path><path d="M259.84 441.96C259.84 441.96 259.84 441.96 259.84 441.96C259.84 454.49 259.84 461.45 259.84 462.84C259.84 462.84 259.84 462.84 259.84 462.84C253.16 462.84 249.45 462.84 248.71 462.84C248.71 462.84 248.71 462.84 248.71 462.84C248.71 450.31 248.71 443.35 248.71 441.96C248.71 441.96 248.71 441.96 248.71 441.96C255.39 441.96 259.1 441.96 259.84 441.96Z" id="b67htLSp8w"></path><path d="M91.41 284.66C91.41 284.66 91.41 284.66 91.41 284.66C78.88 284.66 71.92 284.66 70.53 284.66C70.53 284.66 70.53 284.66 70.53 284.66C70.53 277.98 70.53 274.27 70.53 273.53C70.53 273.53 70.53 273.53 70.53 273.53C83.06 273.53 90.02 273.53 91.41 273.53C91.41 273.53 91.41 273.53 91.41 273.53C91.41 280.21 91.41 283.92 91.41 284.66Z" id="d2cxgNNgAd"></path><path d="M438.02 284.66C438.02 284.66 438.02 284.66 438.02 284.66C425.49 284.66 418.53 284.66 417.14 284.66C417.14 284.66 417.14 284.66 417.14 284.66C417.14 277.98 417.14 274.27 417.14 273.53C417.14 273.53 417.14 273.53 417.14 273.53C429.66 273.53 436.62 273.53 438.02 273.53C438.02 273.53 438.02 273.53 438.02 273.53C438.02 280.21 438.02 283.92 438.02 284.66Z" id="japo0Cpt9"></path><path d="M256.37 268.51L375.61 334.56L246.85 290.27L246.85 290.27L256.37 268.51Z" id="c4CTBYfsL"></path><path d="M282.11 17.4C282.11 17.4 282.11 17.4 282.11 17.4C282.11 54.98 282.11 75.86 282.11 80.04C282.11 80.04 282.11 80.04 282.11 80.04C249.54 80.04 231.44 80.04 227.83 80.04C227.83 80.04 227.83 80.04 227.83 80.04C227.83 42.46 227.83 21.58 227.83 17.4C227.83 17.4 227.83 17.4 227.83 17.4C260.4 17.4 278.49 17.4 282.11 17.4Z" id="b7F0CcVH3V"></path><path d="M317.61 17.4C317.61 27.01 289.56 34.8 254.97 34.8C220.37 34.8 192.33 27.01 192.33 17.4C192.33 7.79 220.37 0 254.97 0C289.56 0 317.61 7.79 317.61 17.4Z" id="dhSnSEMXV"></path></defs><g><g><g><use xlink:href="#a1k1o7HA22" opacity="1" fill="#3f3d56" fill-opacity="1"></use><g><use xlink:href="#a1k1o7HA22" opacity="1" fill-opacity="0" stroke="#000000" stroke-width="1" stroke-opacity="0"></use></g></g><g><use xlink:href="#cSYEq9k4m" opacity="1" fill="#ffffff" fill-opacity="1"></use><g><use xlink:href="#cSYEq9k4m" opacity="1" fill-opacity="0" stroke="#000000" stroke-width="1" stroke-opacity="0"></use></g></g><g><use xlink:href="#e21DSakKhY" opacity="1" fill="#3f3d56" fill-opacity="1"></use><g><use xlink:href="#e21DSakKhY" opacity="1" fill-opacity="0" stroke="#000000" stroke-width="1" stroke-opacity="0"></use></g></g><g><use xlink:href="#b27PJYxHmR" opacity="1" fill="#3f3d56" fill-opacity="1"></use><g><use xlink:href="#b27PJYxHmR" opacity="1" fill-opacity="0" stroke="#000000" stroke-width="1" stroke-opacity="0"></use></g></g><g><use xlink:href="#b67htLSp8w" opacity="1" fill="#3f3d56" fill-opacity="1"></use><g><use xlink:href="#b67htLSp8w" opacity="1" fill-opacity="0" stroke="#000000" stroke-width="1" stroke-opacity="0"></use></g></g><g><use xlink:href="#d2cxgNNgAd" opacity="1" fill="#3f3d56" fill-opacity="1"></use><g><use xlink:href="#d2cxgNNgAd" opacity="1" fill-opacity="0" stroke="#000000" stroke-width="1" stroke-opacity="0"></use></g></g><g><use xlink:href="#japo0Cpt9" opacity="1" fill="#3f3d56" fill-opacity="1"></use><g><use xlink:href="#japo0Cpt9" opacity="1" fill-opacity="0" stroke="#000000" stroke-width="1" stroke-opacity="0"></use></g></g><g><use xlink:href="#c4CTBYfsL" opacity="1" fill="#3f3d56" fill-opacity="1"></use><g><use xlink:href="#c4CTBYfsL" opacity="1" fill-opacity="0" stroke="#000000" stroke-width="1" stroke-opacity="0"></use></g></g><g><use xlink:href="#b7F0CcVH3V" opacity="1" fill="#3f3d56" fill-opacity="1"></use><g><use xlink:href="#b7F0CcVH3V" opacity="1" fill-opacity="0" stroke="#000000" stroke-width="1" stroke-opacity="0"></use></g></g><g><use xlink:href="#dhSnSEMXV" opacity="1" fill="#3f3d56" fill-opacity="1"></use><g><use xlink:href="#dhSnSEMXV" opacity="1" fill-opacity="0" stroke="#000000" stroke-width="1" stroke-opacity="0"></use></g></g></g></g></svg>